<svg version="1.1" viewBox="0.0 0.0 264.742782152231 312.17847769028873" fill="none" stroke="none" stroke-linecap="square" stroke-miterlimit="10" xmlns:xlink="http://www.w3.org/1999/xlink" xmlns="http://www.w3.org/2000/svg"><clipPath id="p.0"><path d="m0 0l264.74277 0l0 312.17847l-264.74277 0l0 -312.17847z" clip-rule="nonzero"/></clipPath><g clip-path="url(#p.0)"><path fill="#000000" fill-opacity="0.0" d="m0 0l264.74277 0l0 312.17847l-264.74277 0z" fill-rule="evenodd"/><g filter="url(#shadowFilter-p.1)"><use xlink:href="#p.1" transform="matrix(1.0 0.0 0.0 1.0 0.0 2.0)"/></g><defs><filter id="shadowFilter-p.1" filterUnits="userSpaceOnUse"><feGaussianBlur in="SourceAlpha" stdDeviation="2.0" result="blur"/><feComponentTransfer in="blur" color-interpolation-filters="sRGB"><feFuncR type="linear" slope="0" intercept="0.0"/><feFuncG type="linear" slope="0" intercept="0.0"/><feFuncB type="linear" slope="0" intercept="0.0"/><feFuncA type="linear" slope="0.5" intercept="0"/></feComponentTransfer></filter></defs><g id="p.1"><path fill="#999999" d="m-0.57569766 303.9415l223.68504 -223.68504l5.448822 5.448822l-223.68504 223.68504z" fill-rule="evenodd"/><path stroke="#000000" stroke-width="1.0" stroke-linejoin="round" stroke-linecap="butt" d="m-0.57569766 303.9415l223.68504 -223.68504l5.448822 5.448822l-223.68504 223.68504z" fill-rule="evenodd"/></g><g filter="url(#shadowFilter-p.2)"><use xlink:href="#p.2" transform="matrix(1.0 0.0 0.0 1.0 0.0 2.0)"/></g><defs><filter id="shadowFilter-p.2" filterUnits="userSpaceOnUse"><feGaussianBlur in="SourceAlpha" stdDeviation="2.0" result="blur"/><feComponentTransfer in="blur" color-interpolation-filters="sRGB"><feFuncR type="linear" slope="0" intercept="0.0"/><feFuncG type="linear" slope="0" intercept="0.0"/><feFuncB type="linear" slope="0" intercept="0.0"/><feFuncA type="linear" slope="0.5" intercept="0"/></feComponentTransfer></filter></defs><g id="p.2"><path fill="#b7b7b7" d="m16.394865 264.3435l223.68504 -223.68503l5.448807 5.448818l-223.68503 223.68503z" fill-rule="evenodd"/><path stroke="#000000" stroke-width="1.0" stroke-linejoin="round" stroke-linecap="butt" d="m16.394865 264.3435l223.68504 -223.68503l5.448807 5.448818l-223.68503 223.68503z" fill-rule="evenodd"/></g><g filter="url(#shadowFilter-p.3)"><use xlink:href="#p.3" transform="matrix(1.0 0.0 0.0 1.0 0.0 2.0)"/></g><defs><filter id="shadowFilter-p.3" filterUnits="userSpaceOnUse"><feGaussianBlur in="SourceAlpha" stdDeviation="2.0" result="blur"/><feComponentTransfer in="blur" color-interpolation-filters="sRGB"><feFuncR type="linear" slope="0" intercept="0.0"/><feFuncG type="linear" slope="0" intercept="0.0"/><feFuncB type="linear" slope="0" intercept="0.0"/><feFuncA type="linear" slope="0.5" intercept="0"/></feComponentTransfer></filter></defs><g id="p.3"><path fill="#efefef" d="m33.36543 224.74553l223.68504 -223.68503l5.448822 5.4488187l-223.68506 223.68504z" fill-rule="evenodd"/><path stroke="#000000" stroke-width="1.0" stroke-linejoin="round" stroke-linecap="butt" d="m33.36543 224.74553l223.68504 -223.68503l5.448822 5.4488187l-223.68506 223.68504z" fill-rule="evenodd"/></g><path fill="#f3f3f3" d="m15.152231 19.325459l0 0c0 -3.1136684 2.524126 -5.6377945 5.6377945 -5.6377945l0 0c1.4952374 0 2.9292316 0.59397984 3.9865246 1.6512718c1.057291 1.057291 1.6512718 2.4912872 1.6512718 3.9865227l0 0c0 3.1136684 -2.524128 5.6377964 -5.6377964 5.6377964l0 0c-3.1136684 0 -5.6377945 -2.524128 -5.6377945 -5.6377964z" fill-rule="evenodd"/><path stroke="#000000" stroke-width="1.0" stroke-linejoin="round" stroke-linecap="butt" d="m15.152231 19.325459l0 0c0 -3.1136684 2.524126 -5.6377945 5.6377945 -5.6377945l0 0c1.4952374 0 2.9292316 0.59397984 3.9865246 1.6512718c1.057291 1.057291 1.6512718 2.4912872 1.6512718 3.9865227l0 0c0 3.1136684 -2.524128 5.6377964 -5.6377964 5.6377964l0 0c-3.1136684 0 -5.6377945 -2.524128 -5.6377945 -5.6377964z" fill-rule="evenodd"/><path fill="#d9d9d9" d="m31.152231 35.32546l0 0c0 -3.1136665 2.524126 -5.6377945 5.6377964 -5.6377945l0 0c1.4952354 0 2.9292297 0.5939808 3.9865227 1.6512718c1.0572891 1.0572929 1.6512718 2.4912872 1.6512718 3.9865227l0 0c0 3.1136703 -2.524128 5.6377945 -5.6377945 5.6377945l0 0c-3.1136703 0 -5.6377964 -2.5241241 -5.6377964 -5.6377945z" fill-rule="evenodd"/><path stroke="#000000" stroke-width="1.0" stroke-linejoin="round" stroke-linecap="butt" d="m31.152231 35.32546l0 0c0 -3.1136665 2.524126 -5.6377945 5.6377964 -5.6377945l0 0c1.4952354 0 2.9292297 0.5939808 3.9865227 1.6512718c1.0572891 1.0572929 1.6512718 2.4912872 1.6512718 3.9865227l0 0c0 3.1136703 -2.524128 5.6377945 -5.6377945 5.6377945l0 0c-3.1136703 0 -5.6377964 -2.5241241 -5.6377964 -5.6377945z" fill-rule="evenodd"/><path fill="#d9d9d9" d="m47.15223 51.32546l0 0c0 -3.1136665 2.524128 -5.6377945 5.6377983 -5.6377945l0 0c1.4952354 0 2.9292297 0.5939789 3.9865227 1.6512718c1.0572891 1.0572929 1.6512718 2.4912872 1.6512718 3.9865227l0 0c0 3.1136703 -2.524128 5.6377945 -5.6377945 5.6377945l0 0c-3.1136703 0 -5.6377983 -2.5241241 -5.6377983 -5.6377945z" fill-rule="evenodd"/><path stroke="#000000" stroke-width="1.0" stroke-linejoin="round" stroke-linecap="butt" d="m47.15223 51.32546l0 0c0 -3.1136665 2.524128 -5.6377945 5.6377983 -5.6377945l0 0c1.4952354 0 2.9292297 0.5939789 3.9865227 1.6512718c1.0572891 1.0572929 1.6512718 2.4912872 1.6512718 3.9865227l0 0c0 3.1136703 -2.524128 5.6377945 -5.6377945 5.6377945l0 0c-3.1136703 0 -5.6377983 -2.5241241 -5.6377983 -5.6377945z" fill-rule="evenodd"/><path fill="#cccccc" d="m63.15223 67.32546l0 0c0 -3.1136703 2.5241318 -5.6377983 5.6377945 -5.6377983l0 0c1.4952393 0 2.9292374 0.5939789 3.9865265 1.6512718c1.0572891 1.0572891 1.651268 2.4912872 1.651268 3.9865265l0 0c0 3.1136627 -2.5241241 5.6377945 -5.6377945 5.6377945l0 0c-3.1136627 0 -5.6377945 -2.5241318 -5.6377945 -5.6377945z" fill-rule="evenodd"/><path stroke="#000000" stroke-width="1.0" stroke-linejoin="round" stroke-linecap="butt" d="m63.15223 67.32546l0 0c0 -3.1136703 2.5241318 -5.6377983 5.6377945 -5.6377983l0 0c1.4952393 0 2.9292374 0.5939789 3.9865265 1.6512718c1.0572891 1.0572891 1.651268 2.4912872 1.651268 3.9865265l0 0c0 3.1136627 -2.5241241 5.6377945 -5.6377945 5.6377945l0 0c-3.1136627 0 -5.6377945 -2.5241318 -5.6377945 -5.6377945z" fill-rule="evenodd"/><path fill="#b7b7b7" d="m79.15223 83.32546l0 0c0 -3.1136703 2.5241318 -5.6377945 5.6377945 -5.6377945l0 0c1.4952393 0 2.9292374 0.5939789 3.9865265 1.651268c1.0572891 1.0572891 1.651268 2.4912872 1.651268 3.9865265l0 0c0 3.1136627 -2.5241241 5.6377945 -5.6377945 5.6377945l0 0c-3.1136627 0 -5.6377945 -2.5241318 -5.6377945 -5.6377945z" fill-rule="evenodd"/><path stroke="#000000" stroke-width="1.0" stroke-linejoin="round" stroke-linecap="butt" d="m79.15223 83.32546l0 0c0 -3.1136703 2.5241318 -5.6377945 5.6377945 -5.6377945l0 0c1.4952393 0 2.9292374 0.5939789 3.9865265 1.651268c1.0572891 1.0572891 1.651268 2.4912872 1.651268 3.9865265l0 0c0 3.1136627 -2.5241241 5.6377945 -5.6377945 5.6377945l0 0c-3.1136627 0 -5.6377945 -2.5241318 -5.6377945 -5.6377945z" fill-rule="evenodd"/><path fill="#999999" d="m95.15223 99.32546l0 0c0 -3.1136703 2.5241318 -5.6377945 5.6377945 -5.6377945l0 0c1.4952393 0 2.9292374 0.5939789 3.9865265 1.651268c1.0572891 1.0572891 1.651268 2.4912872 1.651268 3.9865265l0 0c0 3.1136627 -2.5241241 5.6377945 -5.6377945 5.6377945l0 0c-3.1136627 0 -5.6377945 -2.5241318 -5.6377945 -5.6377945z" fill-rule="evenodd"/><path stroke="#000000" stroke-width="1.0" stroke-linejoin="round" stroke-linecap="butt" d="m95.15223 99.32546l0 0c0 -3.1136703 2.5241318 -5.6377945 5.6377945 -5.6377945l0 0c1.4952393 0 2.9292374 0.5939789 3.9865265 1.651268c1.0572891 1.0572891 1.651268 2.4912872 1.651268 3.9865265l0 0c0 3.1136627 -2.5241241 5.6377945 -5.6377945 5.6377945l0 0c-3.1136627 0 -5.6377945 -2.5241318 -5.6377945 -5.6377945z" fill-rule="evenodd"/><path fill="#666666" d="m111.15223 115.32546l0 0c0 -3.1136703 2.5241318 -5.6377945 5.6377945 -5.6377945l0 0c1.4952393 0 2.9292374 0.5939789 3.9865265 1.651268c1.0572891 1.0572891 1.651268 2.4912872 1.651268 3.9865265l0 0c0 3.1136627 -2.5241241 5.6377945 -5.6377945 5.6377945l0 0c-3.1136627 0 -5.6377945 -2.5241318 -5.6377945 -5.6377945z" fill-rule="evenodd"/><path stroke="#000000" stroke-width="1.0" stroke-linejoin="round" stroke-linecap="butt" d="m111.15223 115.32546l0 0c0 -3.1136703 2.5241318 -5.6377945 5.6377945 -5.6377945l0 0c1.4952393 0 2.9292374 0.5939789 3.9865265 1.651268c1.0572891 1.0572891 1.651268 2.4912872 1.651268 3.9865265l0 0c0 3.1136627 -2.5241241 5.6377945 -5.6377945 5.6377945l0 0c-3.1136627 0 -5.6377945 -2.5241318 -5.6377945 -5.6377945z" fill-rule="evenodd"/><path fill="#efefef" d="m167.15224 171.32545l0 0c0 -3.1136627 2.5241241 -5.637787 5.637787 -5.637787l0 0c1.4952393 0 2.9292297 0.5939789 3.9865265 1.6512756c1.0572968 1.0572815 1.6512756 2.491272 1.6512756 3.9865112l0 0c0 3.113678 -2.5241241 5.637802 -5.637802 5.637802l0 0c-3.1136627 0 -5.637787 -2.5241241 -5.637787 -5.637802z" fill-rule="evenodd"/><path stroke="#000000" stroke-width="1.0" stroke-linejoin="round" stroke-linecap="butt" d="m167.15224 171.32545l0 0c0 -3.1136627 2.5241241 -5.637787 5.637787 -5.637787l0 0c1.4952393 0 2.9292297 0.5939789 3.9865265 1.6512756c1.0572968 1.0572815 1.6512756 2.491272 1.6512756 3.9865112l0 0c0 3.113678 -2.5241241 5.637802 -5.637802 5.637802l0 0c-3.1136627 0 -5.637787 -2.5241241 -5.637787 -5.637802z" fill-rule="evenodd"/><path fill="#d9d9d9" d="m183.15224 187.32545l0 0c0 -3.1136627 2.5241241 -5.637787 5.637787 -5.637787l0 0c1.4952393 0 2.9292297 0.5939789 3.9865265 1.6512756c1.0572968 1.0572815 1.6512756 2.491272 1.6512756 3.9865112l0 0c0 3.113678 -2.5241241 5.637802 -5.637802 5.637802l0 0c-3.1136627 0 -5.637787 -2.5241241 -5.637787 -5.637802z" fill-rule="evenodd"/><path stroke="#000000" stroke-width="1.0" stroke-linejoin="round" stroke-linecap="butt" d="m183.15224 187.32545l0 0c0 -3.1136627 2.5241241 -5.637787 5.637787 -5.637787l0 0c1.4952393 0 2.9292297 0.5939789 3.9865265 1.6512756c1.0572968 1.0572815 1.6512756 2.491272 1.6512756 3.9865112l0 0c0 3.113678 -2.5241241 5.637802 -5.637802 5.637802l0 0c-3.1136627 0 -5.637787 -2.5241241 -5.637787 -5.637802z" fill-rule="evenodd"/><path fill="#cccccc" d="m199.15224 203.32545l0 0c0 -3.1136627 2.5241241 -5.637787 5.637787 -5.637787l0 0c1.4952393 0 2.9292297 0.5939789 3.9865265 1.6512756c1.0572968 1.0572815 1.6512756 2.491272 1.6512756 3.9865112l0 0c0 3.113678 -2.5241241 5.637802 -5.637802 5.637802l0 0c-3.1136627 0 -5.637787 -2.5241241 -5.637787 -5.637802z" fill-rule="evenodd"/><path stroke="#000000" stroke-width="1.0" stroke-linejoin="round" stroke-linecap="butt" d="m199.15224 203.32545l0 0c0 -3.1136627 2.5241241 -5.637787 5.637787 -5.637787l0 0c1.4952393 0 2.9292297 0.5939789 3.9865265 1.6512756c1.0572968 1.0572815 1.6512756 2.491272 1.6512756 3.9865112l0 0c0 3.113678 -2.5241241 5.637802 -5.637802 5.637802l0 0c-3.1136627 0 -5.637787 -2.5241241 -5.637787 -5.637802z" fill-rule="evenodd"/><path fill="#b7b7b7" d="m215.15224 219.32545l0 0c0 -3.1136627 2.5241241 -5.637787 5.637787 -5.637787l0 0c1.4952393 0 2.9292297 0.5939789 3.9865265 1.6512756c1.0572968 1.0572815 1.6512756 2.491272 1.6512756 3.9865112l0 0c0 3.113678 -2.5241241 5.637802 -5.637802 5.637802l0 0c-3.1136627 0 -5.637787 -2.5241241 -5.637787 -5.637802z" fill-rule="evenodd"/><path stroke="#000000" stroke-width="1.0" stroke-linejoin="round" stroke-linecap="butt" d="m215.15224 219.32545l0 0c0 -3.1136627 2.5241241 -5.637787 5.637787 -5.637787l0 0c1.4952393 0 2.9292297 0.5939789 3.9865265 1.6512756c1.0572968 1.0572815 1.6512756 2.491272 1.6512756 3.9865112l0 0c0 3.113678 -2.5241241 5.637802 -5.637802 5.637802l0 0c-3.1136627 0 -5.637787 -2.5241241 -5.637787 -5.637802z" fill-rule="evenodd"/><path fill="#999999" d="m231.15224 235.32545l0 0c0 -3.1136627 2.5241241 -5.637787 5.637787 -5.637787l0 0c1.4952393 0 2.9292297 0.5939789 3.9865265 1.6512756c1.0572968 1.0572815 1.6512756 2.491272 1.6512756 3.9865112l0 0c0 3.113678 -2.5241241 5.637802 -5.637802 5.637802l0 0c-3.1136627 0 -5.637787 -2.5241241 -5.637787 -5.637802z" fill-rule="evenodd"/><path stroke="#000000" stroke-width="1.0" stroke-linejoin="round" stroke-linecap="butt" d="m231.15224 235.32545l0 0c0 -3.1136627 2.5241241 -5.637787 5.637787 -5.637787l0 0c1.4952393 0 2.9292297 0.5939789 3.9865265 1.6512756c1.0572968 1.0572815 1.6512756 2.491272 1.6512756 3.9865112l0 0c0 3.113678 -2.5241241 5.637802 -5.637802 5.637802l0 0c-3.1136627 0 -5.637787 -2.5241241 -5.637787 -5.637802z" fill-rule="evenodd"/></g></svg>