<?xml version="1.0" encoding="UTF-8" standalone="no"?>
<svg
   version="1.0"
   width="554.40002pt"
   height="670.19995pt"
   viewBox="0 0 554.40002 670.19995"
   preserveAspectRatio="xMidYMid"
   id="svg3"
   xmlns="http://www.w3.org/2000/svg"
   xmlns:svg="http://www.w3.org/2000/svg">
  <defs
     id="defs3" />
  <g
     transform="matrix(0.1,0,0,-0.1,-234.49999,847.00001)"
     fill="#000000"
     stroke="none"
     id="g3">
    <path
       d="m 4442,7640 c 3,-796 2,-830 -15,-836 -10,-3 -44,-26 -74,-51 l -56,-46 -30,34 c -16,19 -142,148 -280,287 l -250,252 h -49 c -41,0 -54,-5 -79,-29 -23,-23 -29,-38 -29,-72 0,-37 6,-47 48,-88 157,-151 441,-433 477,-475 l 43,-49 -36,-56 c -19,-31 -40,-64 -46,-74 -10,-17 -52,-18 -866,-17 h -855 v -447 c 0,-247 1,-545 3,-663 l 2,-215 852,3 852,2 41,-29 c 22,-15 58,-38 80,-49 40,-21 81,-58 203,-185 l 62,-65 V 3274 1775 l 678,-4 677,-3 v 1496 1495 l 47,48 c 26,27 73,76 103,110 31,33 75,74 98,89 23,16 60,43 83,61 l 41,33 h 861 861 l -2,660 -2,660 h -846 c -661,0 -848,3 -860,13 -22,18 -74,87 -93,124 -16,32 -16,32 11,50 35,23 516,503 539,537 39,61 -19,146 -99,146 -42,1 -44,-1 -285,-246 -168,-171 -245,-257 -250,-278 -5,-17 -20,-37 -34,-46 -25,-14 -28,-13 -75,31 -26,25 -61,50 -78,57 l -30,12 3,613 c 1,336 3,708 5,825 l 2,212 h -678 -678 z m 756,306 37,-34 5,-348 c 3,-192 3,-388 1,-437 l -3,-89 -109,4 c -84,2 -112,7 -119,18 -11,18 -13,839 -2,856 4,6 25,23 46,38 55,37 97,35 144,-8 z m 89,-1252 c 179,-37 307,-106 439,-238 99,-100 140,-163 178,-276 35,-107 42,-205 21,-310 -47,-234 -145,-364 -445,-586 -159,-119 -209,-191 -218,-317 -3,-40 -10,-75 -16,-79 -6,-4 -71,-8 -144,-8 -117,0 -133,2 -140,18 -4,9 -7,62 -6,117 1,102 15,168 56,249 27,53 130,154 268,260 145,113 191,156 242,230 52,76 65,108 73,182 14,123 -44,255 -148,333 -131,99 -299,134 -450,95 -76,-19 -116,-40 -193,-98 -89,-67 -140,-146 -168,-259 l -23,-92 -135,-3 c -74,-1 -147,2 -162,7 -24,10 -26,15 -26,68 0,32 5,76 11,98 12,45 85,221 104,247 26,38 151,165 201,204 60,47 216,125 284,143 129,33 282,39 397,15 z M 3902,5848 c 6,-13 14,-66 16,-119 l 4,-96 -43,-6 c -57,-8 -904,-9 -946,-1 -24,5 -40,18 -63,53 -42,66 -41,112 4,157 l 34,34 h 491 490 z m 3449,-2 c 46,-32 71,-80 58,-115 -15,-40 -52,-90 -71,-96 -9,-3 -251,-6 -537,-7 -452,-1 -524,0 -537,13 -34,34 -29,157 7,203 l 20,26 h 512 512 z M 5210,4530 c 67,-35 129,-127 130,-194 1,-114 -114,-235 -223,-236 -79,0 -168,65 -208,154 -32,71 -20,168 28,218 81,84 180,105 273,58 z m -13,-786 c 20,-15 36,-39 42,-62 5,-22 8,-306 6,-686 l -3,-649 -36,-35 c -29,-30 -42,-35 -78,-35 -47,0 -102,24 -117,51 -5,10 -10,305 -12,700 -4,672 -3,684 16,699 40,30 100,53 125,47 14,-3 39,-17 57,-30 z"
       id="path1" />
    <path
       d="m 4002,4798 c -117,-105 -418,-419 -426,-445 -10,-32 18,-90 56,-113 66,-40 72,-36 266,158 97,97 220,216 273,262 96,85 96,85 70,96 -15,6 -53,34 -85,63 -33,28 -62,51 -66,51 -4,0 -44,-33 -88,-72 z"
       id="path2" />
    <path
       d="m 6044,4807 -67,-63 54,-49 c 30,-27 147,-141 260,-252 214,-211 210,-209 289,-204 47,4 93,80 74,121 -13,26 -433,456 -475,485 -19,14 -42,25 -51,25 -9,0 -46,-28 -84,-63 z"
       id="path3" />
  </g>
</svg>
